<?xml version="1.0" encoding="UTF-8"?>
<!DOCTYPE svg PUBLIC "-//W3C//DTD SVG 1.1//EN" "http://www.w3.org/Graphics/SVG/1.1/DTD/svg11.dtd">
<!-- Creator: CorelDRAW (Evaluation Version) -->
<svg xmlns="http://www.w3.org/2000/svg" xml:space="preserve" width="1100mm" height="250mm" version="1.1" style="shape-rendering:geometricPrecision; text-rendering:geometricPrecision; image-rendering:optimizeQuality; fill-rule:evenodd; clip-rule:evenodd"
viewBox="0 0 110000 25000"
 xmlns:xlink="http://www.w3.org/1999/xlink"
 xmlns:xodm="http://www.corel.com/coreldraw/odm/2003">
 <defs>
  <style type="text/css">
   <![CDATA[
    .fil3 {fill:url(#id0);fill-rule:nonzero}
    .fil5 {fill:url(#id1);fill-rule:nonzero}
    .fil12 {fill:url(#id2);fill-rule:nonzero}
    .fil6 {fill:url(#id3);fill-rule:nonzero}
    .fil8 {fill:url(#id4);fill-rule:nonzero}
    .fil2 {fill:url(#id5);fill-rule:nonzero}
    .fil9 {fill:url(#id6);fill-rule:nonzero}
    .fil10 {fill:url(#id7);fill-rule:nonzero}
    .fil0 {fill:url(#id8);fill-rule:nonzero}
    .fil11 {fill:url(#id9);fill-rule:nonzero}
    .fil7 {fill:url(#id10);fill-rule:nonzero}
    .fil4 {fill:url(#id11);fill-rule:nonzero}
    .fil1 {fill:url(#id12);fill-rule:nonzero}
   ]]>
  </style>
  <linearGradient id="id0" gradientUnits="userSpaceOnUse" x1="142920.04" y1="10394.04" x2="220619.66" y2="12725.55">
   <stop offset="0" style="stop-opacity:1; stop-color:#373435"/>
   <stop offset="1" style="stop-opacity:1; stop-color:#FEFEFE"/>
  </linearGradient>
  <linearGradient id="id1" gradientUnits="userSpaceOnUse" xlink:href="#id0" x1="142919.72" y1="10394.14" x2="220619.13" y2="12725.55">
  </linearGradient>
  <linearGradient id="id2" gradientUnits="userSpaceOnUse" xlink:href="#id0" x1="142919.93" y1="10394.04" x2="220619.55" y2="12725.55">
  </linearGradient>
  <linearGradient id="id3" gradientUnits="userSpaceOnUse" xlink:href="#id0" x1="142919.93" y1="10394.04" x2="220619.45" y2="12725.55">
  </linearGradient>
  <linearGradient id="id4" gradientUnits="userSpaceOnUse" xlink:href="#id0" x1="142921.43" y1="10394.04" x2="220621.79" y2="12725.55">
  </linearGradient>
  <linearGradient id="id5" gradientUnits="userSpaceOnUse" xlink:href="#id0" x1="142920.04" y1="10394.04" x2="220619.66" y2="12725.55">
  </linearGradient>
  <linearGradient id="id6" gradientUnits="userSpaceOnUse" xlink:href="#id0" x1="142919.93" y1="10394.04" x2="220619.45" y2="12725.55">
  </linearGradient>
  <linearGradient id="id7" gradientUnits="userSpaceOnUse" xlink:href="#id0" x1="142919.93" y1="10394.04" x2="220619.45" y2="12725.55">
  </linearGradient>
  <linearGradient id="id8" gradientUnits="userSpaceOnUse" xlink:href="#id0" x1="142919.83" y1="10394.04" x2="220619.34" y2="12725.55">
  </linearGradient>
  <linearGradient id="id9" gradientUnits="userSpaceOnUse" xlink:href="#id0" x1="142919.83" y1="10394.04" x2="220619.34" y2="12725.45">
  </linearGradient>
  <linearGradient id="id10" gradientUnits="userSpaceOnUse" xlink:href="#id0" x1="142919.93" y1="10394.04" x2="220619.45" y2="12725.55">
  </linearGradient>
  <linearGradient id="id11" gradientUnits="userSpaceOnUse" xlink:href="#id0" x1="142919.93" y1="10394.04" x2="220619.45" y2="12725.55">
  </linearGradient>
  <linearGradient id="id12" gradientUnits="userSpaceOnUse" xlink:href="#id0" x1="142919.93" y1="10394.14" x2="220619.55" y2="12725.55">
  </linearGradient>
 </defs>
 <g id="Layer_x0020_1">
  <metadata id="CorelCorpID_0Corel-Layer"/>
  <g id="_2682262713568">
   <polygon class="fil0" points="24962.8,15913.12 28376.09,15913.12 28376.09,7188.45 24962.8,7188.45 "/>
   <path class="fil1" d="M26669.44 5290.46c1227.02,0 2221.38,-964.88 2221.38,-2154.97 0,-1190.08 -994.36,-2154.76 -2221.38,-2154.76 -1226.7,0 -2220.95,964.68 -2220.95,2154.76 0,1190.09 994.25,2154.97 2220.95,2154.97z"/>
   <polygon class="fil2" points="18041.67,15913.12 21455.38,15913.12 21455.38,1168.65 18041.67,1168.65 "/>
   <polygon class="fil3" points="51603.03,15913.12 55315.25,15913.12 55315.25,12646.44 51603.03,12646.44 "/>
   <path class="fil4" d="M60239.55 15913.12c-287.19,-674.14 -492.85,-1383.29 -603.85,-2118.83 -56.14,-422.03 -87.73,-851.51 -87.73,-1288.87 0,-478.97 35.76,-949.04 103.1,-1410 739.5,-4545.08 5007.55,-8077.86 10457.8,-8290.43 177.69,-6.42 356.56,-10.45 538,-10.76l0 4.65c35.75,-0.82 70.76,-1.44 106.19,-2.48 32.76,0.72 65.85,1.45 98.61,2.17l0 -1.45c1679.97,24.96 3459.72,407.64 4945.76,1003.3 1926.18,835.16 3526.73,2146.69 4614.8,3755.39l4028.24 0c-1.92,-3.83 -3.84,-7.35 -5.66,-10.97 1905.05,-2842.17 5418.66,-4751.34 9559.06,-4751.34 5.55,0 11.64,0.31 17.29,0.31l0 5.07c35.33,-0.82 71.19,-1.44 106.51,-2.48 32.77,0.72 65.11,1.45 98.3,2.17l0 -4.76c5.97,0 12.06,-0.31 17.71,-0.31 6162.21,0 11093.67,4356.85 11093.67,9711.72 0,1198.78 -243.98,2347.03 -690.51,3407.9l3888.1 0c400.65,-1080.85 619.01,-2224.13 619.01,-3407.9 0,-6600.97 -6688.58,-11971.16 -14910.27,-11971.16 -40.34,0 -80.57,1.03 -120.17,2.59 -40.23,-1.56 -79.83,-2.59 -119.64,-2.59 -4661.86,0 -8827.14,1728.39 -11561.65,4427.56 -2735.69,-2698.76 -6901.39,-4427.56 -11562.51,-4427.56 -27.86,0 -54.54,0.72 -81.64,1.45 -36.93,0 -73.75,-1.45 -110.36,-1.45 -8.22,0 -16.11,0.31 -24.44,0.31 -7.9,0 -16.22,-0.31 -24.12,-0.31 -8221.26,0 -14910.26,5370.19 -14910.26,11971.36 0,1183.98 218.36,2327.16 619.32,3407.7l3901.34 0z"/>
   <polygon class="fil5" points="76419.74,15913.12 80132.08,15913.12 80132.08,12646.44 76419.74,12646.44 "/>
   <path class="fil6" d="M35356.45 15913.12c-409.61,-1060.87 -624.98,-2208.71 -624.98,-3407.7 0,-5355.07 4274.45,-9711.92 11129.42,-9711.92 2446.89,0 4832.41,779.34 6529.02,1876.55l1625.75 -2192.76c-2347.53,-1226.95 -5148,-1943.23 -8154.77,-1943.23 -8248.05,0 -14958.83,5370.19 -14958.83,11971.36 0,1183.98 219.11,2327.16 621.25,3407.7l3833.14 0z"/>
   <path class="fil7" d="M55315.25 17669.57l-3712.22 0 0 3392.89c-1748.48,735.14 -3620.87,1154.68 -5742.14,1154.68 -4426.54,0 -7775.15,-1818.16 -9593.22,-4547.57l-3899.85 0c2413.38,4022.93 7554.13,6806.91 13493.07,6806.91 3536.55,0 6788.79,-989.53 9352.33,-2637.78l-78.23 -76.72 180.26 0 0 -4092.41z"/>
   <path class="fil8" d="M3491.6 15913.12l3961 0c-1900.35,-2508.04 -2977.96,-5596.73 -3071.66,-8580.85 -93.06,-2953.47 4.27,-6011.83 11.42,-6163.72l-3516.6 0c-7.15,151.89 -76.31,3739.54 0,6163.72 97.23,3083.31 1006.21,6048.58 2615.84,8580.85z"/>
   <path class="fil9" d="M103655.92 17669.57c-1935.99,2729.41 -5381.72,4547.57 -9422.34,4547.57 -5.66,0 -11.74,-0.31 -17.72,-0.31l0 -4.76c-35.01,0.41 -70.76,1.13 -106.19,2.17 -32.77,-0.72 -65.85,-1.45 -98.61,-1.76l0 4.35c-5.66,0 -11.74,0.31 -17.29,0.31 -3846.38,0 -7211.22,-1698.98 -9198.01,-4277.23l-2802.29 1655.81c2716.05,2957.2 7081.97,4880.76 12000.3,4880.76 40.23,0 79.72,-1.14 120.06,-2.17 39.92,1.03 79.83,2.17 119.75,2.17 5919.73,0 11043.61,-2783.98 13449.83,-6806.91l-4027.49 0z"/>
   <path class="fil10" d="M80132.08 17669.57l-3712.34 0 0 3269.58c-912.18,456.82 -1909.52,803.57 -2972.08,1019.66 -826.38,156.24 -1688.61,244.04 -2595.99,253.98l0 -0.72c-35.32,0.41 -70.76,1.13 -106.19,2.17 -32.76,-0.72 -65.53,-1.45 -98.61,-1.76l0 3.93c-159.24,-0.31 -316.23,-4.34 -472.48,-9.31 -3787.25,-132.64 -7061.69,-1913.63 -8941.97,-4537.53l-4052.68 0c2405.8,4022.93 7530.11,6806.91 13449.41,6806.91 7.9,0 16.22,-0.41 24.12,-0.41 8.33,0 16.22,0.41 24.44,0.41 34.69,0 68.52,-1.45 102.78,-1.86 29.77,1.13 59.12,1.86 89.22,1.86 2629.92,0 5100.93,-551.66 7248.14,-1515.62 -13.55,-19.25 -25.61,-40.07 -38.42,-59.43 685.17,-314.03 1338.12,-668.97 1950.62,-1062.73l-78.23 -76.72 180.26 0 0 -4092.41z"/>
   <polygon class="fil11" points="24962.8,23515.11 28376.09,23515.11 28376.09,17669.57 24962.8,17669.57 "/>
   <path class="fil12" d="M18041.67 17669.57l0 3575.54c-3678.18,0 -6734.37,-1417.25 -9018.07,-3575.54l-4242.01 0c2964.4,3511.34 7504.49,5834.98 13260.08,5834.98l3413.92 0 0 -5834.98 -3413.92 0z"/>
  </g>
 </g>
</svg>
